<?xml version="1.0" encoding="utf-8"?>
<!-- Generator: Adobe Illustrator 18.0.0, SVG Export Plug-In . SVG Version: 6.00 Build 0)  -->
<!DOCTYPE svg PUBLIC "-//W3C//DTD SVG 1.1//EN" "http://www.w3.org/Graphics/SVG/1.1/DTD/svg11.dtd">
<svg version="1.1" id="Layer_1" xmlns="http://www.w3.org/2000/svg" xmlns:xlink="http://www.w3.org/1999/xlink" x="0px" y="0px"
	 viewBox="0 0 432 144" enable-background="new 0 0 432 144" xml:space="preserve">
<g>
	<circle fill="#F5BB60" cx="48.3" cy="72.9" r="46.1"/>
	<circle fill="#E86F32" cx="43.6" cy="68.2" r="41.5"/>
	<circle fill="#E53D42" cx="49.1" cy="62.7" r="36"/>
	<circle fill="#BFD141" cx="52" cy="65.6" r="33.1"/>
	<circle fill="#6DB64C" cx="49.6" cy="68" r="30.7"/>
	<circle fill="#AFDBE7" cx="44.7" cy="63.2" r="25.8"/>
	<circle fill="#57BADF" cx="48.9" cy="58.9" r="21.6"/>
	<circle fill="#02B2D6" cx="51.6" cy="61.6" r="19"/>
	<radialGradient id="SVGID_1_" cx="48.8456" cy="64.301" r="16.2385" gradientUnits="userSpaceOnUse">
		<stop  offset="0" style="stop-color:#797979"/>
		<stop  offset="1" style="stop-color:#4C4C4C"/>
	</radialGradient>
	<circle fill="url(#SVGID_1_)" cx="48.8" cy="64.3" r="16.2"/>
	<circle fill="#231F20" cx="48.8" cy="64.3" r="16.2"/>
	<ellipse transform="matrix(0.9124 0.4094 -0.4094 0.9124 28.7549 -17.5316)" fill="#FFFFFF" cx="55.3" cy="58.4" rx="3.2" ry="5"/>
</g>
<path fill="#382F27" d="M109.2,55.2c0-0.3,0.2-0.5,0.6-0.5h14.5c8.3,0,12.2,3.8,12.2,9.6c0,4.1-2.1,6.4-4.5,7.6V72
	c2.4,0.8,5.2,3.7,5.2,8.1c0,7.2-4.9,10.6-13.4,10.6h-14c-0.3,0-0.6-0.2-0.6-0.5V55.2z M124.2,69.7c3.4,0,5.6-1.9,5.6-4.7
	c0-2.9-2.1-4.8-5.6-4.8h-7.8c-0.2,0-0.3,0.1-0.3,0.3v8.9c0,0.2,0.1,0.3,0.3,0.3H124.2z M116.4,85.3h8.2c3.8,0,5.9-2,5.9-5
	c0-3-2.1-5-5.9-5h-8.2c-0.2,0-0.3,0.1-0.3,0.3v9.4C116,85.2,116.1,85.3,116.4,85.3z"/>
<path fill="#382F27" d="M142,90.8c-0.3,0-0.6-0.2-0.6-0.5V65.7c0-0.3,0.2-0.5,0.6-0.5h5.3c0.3,0,0.6,0.2,0.6,0.5v2.2h0.1
	c1.3-2,3.7-3.3,7.2-3.3c2.2,0,4.4,0.8,5.8,2.1c0.3,0.3,0.3,0.5,0.1,0.7l-3,3.6c-0.2,0.3-0.5,0.3-0.8,0.1c-1.3-0.7-2.6-1.2-4.1-1.2
	c-3.6,0-5.2,2.4-5.2,6.5v13.9c0,0.3-0.2,0.5-0.6,0.5H142z"/>
<path fill="#382F27" d="M162,84.3c-0.6-1.8-0.9-3.5-0.9-6.3s0.3-4.5,0.9-6.3c1.6-4.5,5.8-7.1,11.4-7.1c5.6,0,9.8,2.6,11.4,7.1
	c0.6,1.8,0.9,3.5,0.9,6.3s-0.3,4.5-0.9,6.3c-1.6,4.5-5.8,7.1-11.4,7.1C167.8,91.4,163.6,88.8,162,84.3z M178.6,82.7
	c0.5-1.3,0.6-2.5,0.6-4.7s-0.1-3.3-0.6-4.7c-0.8-2.1-2.6-3.3-5.2-3.3c-2.6,0-4.4,1.2-5.2,3.3c-0.5,1.4-0.6,2.5-0.6,4.7
	s0.1,3.4,0.6,4.7c0.8,2.1,2.6,3.3,5.2,3.3C176,86.1,177.8,84.8,178.6,82.7z"/>
<path fill="#382F27" d="M213.6,90.8c-0.3,0-0.6-0.2-0.7-0.5l-5.3-16.4h-0.1l-5.4,16.4c-0.1,0.3-0.3,0.5-0.7,0.5h-4.7
	c-0.3,0-0.6-0.2-0.7-0.5l-8.7-24.5c-0.1-0.3,0.1-0.5,0.4-0.5h5.5c0.4,0,0.6,0.2,0.7,0.5l5.3,16.9h0.1l5.3-16.9
	c0.1-0.3,0.4-0.5,0.7-0.5h4.1c0.3,0,0.6,0.2,0.7,0.5l5.6,16.9h0.1l5.1-16.9c0.1-0.4,0.3-0.5,0.7-0.5h5.5c0.3,0,0.5,0.2,0.4,0.5
	L219,90.2c-0.1,0.3-0.3,0.5-0.7,0.5H213.6z"/>
<path fill="#382F27" d="M228.9,87.3c-0.2-0.2-0.2-0.5,0-0.7l3.3-3.2c0.2-0.2,0.6-0.2,0.8,0c2,1.7,5.2,2.9,8.1,2.9
	c3.4,0,5.1-1.3,5.1-3c0-1.5-1-2.5-4.6-2.8l-3-0.3c-5.6-0.5-8.5-3.2-8.5-7.5c0-4.9,3.8-8.1,10.7-8.1c4.3,0,7.9,1.3,10.4,3.1
	c0.3,0.2,0.3,0.5,0.1,0.7l-2.8,3.1c-0.2,0.3-0.5,0.3-0.8,0.1c-1.7-1.1-4.5-2.1-7.2-2.1c-2.8,0-4.2,1.1-4.2,2.7c0,1.5,1,2.4,4.5,2.7
	l3,0.3c5.8,0.5,8.6,3.3,8.6,7.5c0,5.1-4,8.7-11.6,8.7C235.1,91.4,231.2,89.3,228.9,87.3z"/>
<path fill="#382F27" d="M256.7,84.2c-0.6-1.6-1-3.6-1-6.3s0.3-4.7,0.9-6.3c1.6-4.5,5.8-7.1,11.3-7.1c5.7,0,9.8,2.7,11.4,7.1
	c0.6,1.8,0.9,3.6,0.9,7.7c0,0.3-0.2,0.5-0.6,0.5h-17.1c-0.2,0-0.3,0.1-0.3,0.3c0,0.7,0.2,1.4,0.4,2c0.9,2.5,3.1,3.9,6.2,3.9
	c3.1,0,5.1-1.1,6.5-2.4c0.3-0.3,0.6-0.3,0.9-0.1l3.4,2.8c0.3,0.2,0.3,0.5,0.1,0.7c-2.4,2.5-6.3,4.4-11.4,4.4
	C262.4,91.4,258.3,88.7,256.7,84.2z M273.5,72.9c-0.7-2.1-2.8-3.3-5.4-3.3c-2.6,0-4.7,1.2-5.5,3.3c-0.2,0.6-0.3,1.3-0.3,2.2
	c0,0.2,0.1,0.3,0.3,0.3h10.9c0.2,0,0.3-0.1,0.3-0.3C273.8,74.2,273.7,73.6,273.5,72.9z"/>
<path fill="#382F27" d="M285.1,90.8c-0.3,0-0.6-0.2-0.6-0.5V65.7c0-0.3,0.2-0.5,0.6-0.5h5.3c0.3,0,0.6,0.2,0.6,0.5v2.2h0.1
	c1.3-2,3.7-3.3,7.2-3.3c2.2,0,4.4,0.8,5.8,2.1c0.3,0.3,0.3,0.5,0.1,0.7l-3,3.6c-0.2,0.3-0.5,0.3-0.8,0.1c-1.3-0.7-2.6-1.2-4.1-1.2
	c-3.6,0-5.2,2.4-5.2,6.5v13.9c0,0.3-0.2,0.5-0.6,0.5H285.1z"/>
<path fill="#382F27" d="M305,86.6c-0.2-0.2-0.3-0.5-0.1-0.8l3.6-3.8c0.2-0.3,0.6-0.3,0.8-0.1c2.5,1.9,6.3,3.8,10.6,3.8
	c4.7,0,7.4-2.2,7.4-5.2c0-2.6-1.7-4.3-7.1-5l-2.1-0.3c-7.5-1-11.8-4.3-11.8-10.3c0-6.5,5.2-10.9,13.2-10.9c4.9,0,9.5,1.4,12.6,3.6
	c0.3,0.2,0.3,0.4,0.1,0.7l-2.8,3.9c-0.2,0.3-0.5,0.3-0.8,0.2c-3.2-1.9-6.1-2.8-9.4-2.8c-4,0-6.1,2-6.1,4.8c0,2.5,1.9,4.2,7.2,4.9
	l2.1,0.3c7.5,1,11.7,4.2,11.7,10.5c0,6.4-5,11.2-14.7,11.2C313.7,91.4,308.1,89.2,305,86.6z"/>
<path fill="#382F27" d="M346,91.2c-5.6,0-7.7-2.5-7.7-7.5V70.3c0-0.2-0.1-0.3-0.3-0.3h-1.8c-0.3,0-0.6-0.2-0.6-0.5v-3.6
	c0-0.3,0.2-0.5,0.6-0.5h1.8c0.2,0,0.3-0.1,0.3-0.3v-7c0-0.3,0.2-0.5,0.6-0.5h5.3c0.3,0,0.6,0.2,0.6,0.5v7c0,0.2,0.1,0.3,0.3,0.3h3.7
	c0.3,0,0.6,0.2,0.6,0.5v3.6c0,0.3-0.2,0.5-0.6,0.5h-3.7c-0.2,0-0.3,0.1-0.3,0.3v13.3c0,1.8,0.8,2.4,2.6,2.4h1.4
	c0.3,0,0.6,0.2,0.6,0.5v4.2c0,0.3-0.2,0.5-0.6,0.5H346z"/>
<path fill="#382F27" d="M370.4,90.8c-0.3,0-0.6-0.2-0.6-0.5v-1.9h-0.1c-1.3,1.8-3.9,3-7.8,3c-5.1,0-9.3-2.4-9.3-7.8
	c0-5.6,4.3-8.1,11.1-8.1h5.6c0.2,0,0.3-0.1,0.3-0.3v-1.2c0-2.9-1.5-4.2-6.1-4.2c-3.1,0-5,0.8-6.3,1.8c-0.3,0.2-0.6,0.2-0.8-0.1
	l-2.1-3.5c-0.2-0.3-0.1-0.5,0.1-0.7c2.2-1.5,5.3-2.5,9.8-2.5c8.4,0,11.5,2.7,11.5,8.9v16.7c0,0.3-0.2,0.5-0.6,0.5H370.4z
	 M369.7,82.2v-2c0-0.2-0.1-0.3-0.3-0.3h-4.6c-4.1,0-6,1.1-6,3.5c0,2.1,1.7,3.2,4.8,3.2C367.5,86.5,369.7,85.1,369.7,82.2z"/>
<path fill="#382F27" d="M380.8,84.3c-0.6-1.6-0.9-3.6-0.9-6.3s0.3-4.7,0.9-6.3c1.6-4.6,5.9-7.1,11.4-7.1c4.1,0,7.4,1.5,9.6,4
	c0.2,0.2,0.2,0.5-0.1,0.7l-3.6,2.9c-0.3,0.2-0.6,0.2-0.8-0.1c-1.4-1.4-2.8-2.2-5.1-2.2c-2.5,0-4.4,1.1-5.2,3.3
	c-0.5,1.3-0.6,2.8-0.6,4.7s0.1,3.5,0.6,4.8c0.8,2.2,2.7,3.3,5.2,3.3c2.3,0,3.7-0.8,5.1-2.2c0.2-0.3,0.5-0.3,0.8-0.1l3.6,2.9
	c0.3,0.2,0.2,0.5,0.1,0.7c-2.2,2.4-5.5,3.9-9.6,3.9C386.7,91.4,382.4,88.9,380.8,84.3z"/>
<path fill="#382F27" d="M424.2,90.8c-0.4,0-0.7-0.2-0.9-0.5l-7-10.7l-3.7,4v6.7c0,0.3-0.2,0.5-0.6,0.5h-5.3c-0.3,0-0.6-0.2-0.6-0.5
	V55.2c0-0.3,0.2-0.5,0.6-0.5h5.3c0.3,0,0.6,0.2,0.6,0.5V76l9.5-10.3c0.3-0.4,0.6-0.5,1.1-0.5h5.9c0.3,0,0.5,0.3,0.2,0.5l-8.8,9.3
	l10.1,15.2c0.2,0.2,0.1,0.5-0.3,0.5H424.2z"/>
</svg>
